<svg version="1.2" xmlns="http://www.w3.org/2000/svg" viewBox="0 0 763 278" width="763" height="278">
	<title>logo-svg</title>
	<style>
		.s0 { opacity: 0;fill: #000000 } 
		.s1 { fill: #0d0e12 } 
		.s2 { fill: #ffffff } 
	</style>
	<path id="Layer" class="s0" d="m-118-161h1000v600h-1000z"/>
	<g id="Layer">
		<path id="Layer" class="s1" d="m141 273c-74.1 0-134-59.9-134-134 0-74.1 59.9-134 134-134 74.1 0 133.9 59.9 133.9 134 0 74.1-59.8 134-133.9 134z"/>
		<path id="Layer" class="s2" d="m108.4 199.3h-18.1l1.7-13.8v-106.8h17.3l57.8 86.8 6.8 16.9h1.3v-89.9l-1.7-13.8h18.1l-1.7 13.8v106.8h-17.2l-57.9-86.8-6.7-16.7h-1.4v89.7z"/>
		<path id="Layer" class="s1" d="m359.7 197.3h-17.8l1.7-13.6v-105h16.9l56.9 85.4 6.7 16.6h1.3v-88.4l-1.7-13.6h17.8l-1.7 13.6v105h-16.9l-56.9-85.4-6.6-16.4h-1.4v88.2zm106.2-43.3q0-16.8 5.5-26.7 5.5-9.9 14.5-14.1 9-4.3 19.1-4.3 11.7 0 19.6 4.7 7.8 4.6 11.8 13.2 4 8.5 4 20.4 0 3.4-0.3 6.2-0.4 2.9-0.9 5.5h-65.9v-3.1l15.3-8.4h37.4q0-7.7-1.6-13.6-1.6-5.9-6.2-9.3-4.5-3.4-13.4-3.4-9.1 0-14.4 4-5.4 4-7.7 11.1-2.2 7.1-2.2 16.6 0 11.3 2.5 18.3 2.5 6.9 6.8 10.3 4.2 3.4 9.3 4.6 5.1 1.2 10.2 1.2 7.9 0 13.7-1.6 5.9-1.7 10.5-4.4l2.7 1.7v12.2q-5.3 1.9-11.6 3.1-6.4 1.1-13.8 1.1-8.2 0-16.2-1.9-8-1.9-14.5-6.9-6.4-4.9-10.3-13.8-3.9-8.9-3.9-22.7zm129.4 43.3h-17.3l-25.2-86.4h16.4l2.7 13.6 13.4 50 1.3 10.8h1.1l1.3-10.8 18.1-62.7h17.6l18 62.7 1.4 10.8h1l1.3-10.8 13.6-50 2.7-13.6h16.4l-25.6 86.4h-17.2l-16.6-57.4-3.3-14.6h-1l-3.2 14.6zm157-84.3v12.8l-2.7 1.7q-4.7-3-10.5-4.7-5.8-1.7-13.2-1.7-5.1 0-9.2 0.9-4.2 0.9-6.7 3.2-2.4 2.3-2.4 6.4 0 4.9 3.6 7.8 3.5 2.9 9.2 4.9 5.7 2 11.9 4.1 6.3 2 12 5 5.6 3.1 9.2 8.2 3.5 5.1 3.5 13.2 0 9.6-4.9 15-5.1 5.3-13.2 7.4-8.1 2.1-17.3 2.1-9.3 0-16.4-1.5-7.1-1.5-12.2-3.2v-12.5l2.7-1.7q5.5 3.2 11.7 4.9 6.3 1.8 15.4 1.8 5.3 0 9.9-0.8 4.5-0.9 7.5-3.4 3-2.5 3-7.5 0-5.5-3.6-8.7-3.6-3.3-9.2-5.3-5.7-2-12.1-3.9-6.3-1.9-12-4.7-5.6-2.8-9.2-7.7-3.6-4.9-3.6-12.8 0-7.3 3-11.9 3-4.6 8-7.1 5-2.5 11-3.5 6-0.9 12.1-0.9 7.4 0 13.6 1.1 6.2 1.1 11.1 3z"/>
	</g>
</svg>