<svg xmlns="http://www.w3.org/2000/svg" version="1.1" xmlns:xlink="http://www.w3.org/1999/xlink" xmlns:svgjs="http://svgjs.dev/svgjs" width="100%" height="100%" viewBox="0 0 1000 600"><rect width="1000" height="600" x="0" y="0" fill="#0000"/><g><circle r="166.66666666666666" cx="322.1771799723307" cy="344.3994467621731" fill="#0d0e12" transform="matrix(0.8038039393457712,0,0,0.8038039393457712,0,23.170368531383048)"/><path d="M281.67123993125347 419.39943301721473L259.17124061244937 419.39943301721473L261.3140976904307 402.256576393364L261.3140976904307 269.39943755852084L282.7426684702441 269.39943755852084L354.736713909645 377.4053866695526L363.09980889454437 398.38752889145326L364.8259993184738 398.38752889145326L364.8259993184738 286.5422941823716L362.6831422404925 269.39943755852084L385.1831415592966 269.39943755852084L383.0402844813152 286.5422941823716L383.0402844813152 419.39943301721473L361.6117137015018 419.39943301721473L289.58790635824005 311.39348390618295L281.25457327720153 290.6196750113083L279.5283828532721 290.6196750113083L279.5283828532721 402.256576393364L281.67123993125347 419.39943301721473Z " fill="white" transform="matrix(0.8038039393457712,0,0,0.8038039393457712,0,23.170368531383048)"/><path d="M594.2996994849486 416.88284920572954L572.1771877264389 416.88284920572954L574.2840936082016 400.02760215162675L574.2840936082016 269.3994374823303L595.3531524258301 269.3994374823303L666.1393375367235 375.593346439516L674.3621229919369 396.2234665317772L676.0593527300235 396.2234665317772L676.0593527300235 286.2546845364331L673.9524468482607 269.3994374823303L696.0749586067706 269.3994374823303L693.9680527250077 286.2546845364331L693.9680527250077 416.88284920572954L672.8989939073793 416.88284920572954L602.0835462147948 310.6889402485439L593.8900233412726 290.26365822812073L592.1927936031859 290.26365822812073L592.1927936031859 400.02760215162675L594.2996994849486 416.88284920572954ZM726.3909932388027 362.9519111489389L726.3909932388027 362.9519111489389Q726.3909932388027 342.0876904031485 733.2384373545319 329.7681435111741Q740.0858814702611 317.4485966191997 751.2641876762807 312.18133191479257Q762.4424938823003 306.91406721038544 775.0839291728772 306.91406721038544L775.0839291728772 306.91406721038544Q789.598169691688 306.91406721038544 799.4011345582235 312.7080583852333Q809.204099424759 318.5020495600811 814.1494757305634 329.1243667139688Q819.0948520363678 339.77594644954763 819.0948520363678 354.52428762188754L819.0948520363678 354.52428762188754Q819.0948520363678 358.7380993854132 818.6851758926917 362.3081343517336Q818.2754997490157 365.9074318997451 817.6317229518103 369.06779072238936L817.6317229518103 369.06779072238936L735.6672316348973 369.06779072238936L735.6672316348973 365.2636551025398L754.629384570763 354.72912569372556L801.1861520413837 354.72912569372556Q801.1861520413837 345.2480492257928 799.1962964863854 337.87387863962283Q797.2064409313872 330.4997080534529 791.5002375016128 326.28589628992717Q785.8232966535296 322.07208452640145 774.8498285193481 322.07208452640145L774.8498285193481 322.07208452640145Q763.4959468231816 322.07208452640145 756.8533407792904 327.0174608322059Q750.2107347353992 331.9628371380104 747.3722643113576 340.82939939042905Q744.533793887316 349.6666990611565 744.533793887316 361.4595194826902L744.533793887316 361.4595194826902Q744.533793887316 375.593346439516 747.6941527099603 384.22580803840543Q750.8545115326045 392.8582696372949 756.1217762370117 397.0720814008206Q761.3890409414188 401.28589316434625 767.7097585867074 402.77828483059494Q774.0304762319959 404.24141391515246 780.3511938772843 404.24141391515246L780.3511938772843 404.24141391515246Q790.2419464888933 404.24141391515246 797.4990667482987 402.2515583601542Q804.7854495893952 400.23244022346483 810.4623904374783 396.86724332898245L810.4623904374783 396.86724332898245L813.8275873319607 398.97414921074534L813.8275873319607 414.13216652676135Q807.3020316148342 416.47317306205343 799.4011345582235 417.93630214661096Q791.5002375016128 419.3994312311685 782.2239991055181 419.3994312311685L782.2239991055181 419.3994312311685Q772.1284084220712 419.3994312311685 762.1206054836975 416.99989953249417Q752.112802545324 414.57110525212863 744.0948551619488 408.4552256786782Q736.1061703602646 402.33934610522766 731.2485817995337 391.27809022597273Q726.3909932388027 380.2168343467178 726.3909932388027 362.9519111489389ZM887.3644551218223 416.88284920572954L865.8857201605177 416.88284920572954L834.4869700059131 309.43064923582443L854.9122520263362 309.43064923582443L858.3067115025098 326.28589628992717L874.9278579030832 388.43961980193114L876.62508764117 401.92966996155155L877.8833786538895 401.92966996155155L879.5806083919762 388.43961980193114L902.1127962941622 310.48410217670585L924.030469980834 310.48410217670585L946.3578198111819 388.43961980193114L948.0550495492687 401.92966996155155L949.3133405619882 401.92966996155155L951.0105703000748 388.43961980193114L967.8658173541777 326.28589628992717L971.23101424866 309.43064923582443L991.6562962690832 309.43064923582443L959.8478699708024 416.88284920572954L938.3691350094979 416.88284920572954L917.7097523355454 345.4528872976308L913.7007786438579 327.3393492308086L912.4424876311383 327.3393492308086L908.4335139394508 345.4528872976308L887.3644551218223 416.88284920572954ZM1082.6921879102529 311.94723126126337L1082.6921879102529 311.94723126126337L1082.6921879102529 327.9831260280139L1079.2977284340793 330.09003190977677Q1073.415949514158 326.28589628992717 1066.246616999826 324.17899040816434Q1059.0772844854941 322.07208452640145 1049.8010460893993 322.07208452640145L1049.8010460893993 322.07208452640145Q1043.480328444111 322.07208452640145 1038.3301140664685 323.2425877940475Q1033.179899688826 324.38382848000236 1030.107328611255 327.222298904044Q1027.0640201153756 330.09003190977677 1027.0640201153756 335.1231959606547L1027.0640201153756 335.1231959606547Q1027.0640201153756 341.23907553410515 1031.4826699507391 344.8383730821167Q1035.9013197861027 348.4084080484371 1042.9536019736702 350.924990073876Q1050.0351467429286 353.4708346810061 1057.8189934727748 355.98741670644506Q1065.6028402026209 358.53326131357517 1072.6843849718794 362.3081343517336Q1079.7366671594466 366.1122699715832 1084.1553169948102 372.43298761687174Q1088.573966830174 378.7537052621602 1088.573966830174 388.8492959456072L1088.573966830174 388.8492959456072Q1088.573966830174 400.87621702067014 1082.37029951165 407.51882306456133Q1076.1373696114351 414.13216652676135 1066.0417789279882 416.7657988789649Q1055.9169256628497 419.3994312311685 1044.5337813849924 419.3994312311685L1044.5337813849924 419.3994312311685Q1032.9457990352967 419.3994312311685 1024.108499364569 417.52662600293485Q1015.2711996938417 415.62455819301005 1008.9504820485532 413.5176523112472L1008.9504820485532 413.5176523112472L1008.9504820485532 397.9206962698639L1012.3156789430353 395.8137903881011Q1019.0460727320001 399.8227640797887 1026.8591820435372 402.017457706625Q1034.6430287733833 404.24141391515246 1046.0261730512411 404.24141391515246L1046.0261730512411 404.24141391515246Q1052.5517287683674 404.24141391515246 1058.228669616451 403.18796097427105Q1063.9348730462252 402.1345080333896 1067.6219583393101 398.97414921074534Q1071.309043632395 395.8137903881011 1071.309043632395 389.6979108146506L1071.309043632395 389.6979108146506Q1071.309043632395 382.7626789538479 1066.8903937970313 378.7537052621602Q1062.4424813799765 374.7447315704726 1055.3901991924092 372.22814954503366Q1048.337917004842 369.6823049379036 1040.4370199482312 367.37056098430264Q1032.5361228916204 365.0588170307018 1025.4838407040534 361.57656980945484Q1018.4315585164859 358.0943225882079 1013.983646099431 351.97844301475743Q1009.5649962640673 345.8918260229981 1009.5649962640673 335.97181082969803L1009.5649962640673 335.97181082969803Q1009.5649962640673 326.9296730871325 1013.2520815571523 321.2234696573581Q1016.9391668502373 315.5465288092749 1023.1720967504524 312.38616998663065Q1029.3757640689764 309.22581116398635 1036.8669849819107 308.0553078963403Q1044.3289433131545 306.91406721038544 1051.9079519711622 306.91406721038544L1051.9079519711622 306.91406721038544Q1061.184190367257 306.91406721038544 1068.8802493520298 308.2601459681784Q1076.5763083368024 309.63548730766246 1082.6921879102529 311.94723126126337Z " fill="#0d0e12" transform="matrix(0.8038039393457712,0,0,0.8038039393457712,0,23.170368531383048)"/></g></svg>